<svg width="150" height="150" viewBox="0 0 150 150" fill="none" xmlns="http://www.w3.org/2000/svg">
<g clip-path="url(#clip0_3256_974)">
<path d="M110.287 90.8679C117.277 90.8679 119.436 85.1183 117.478 78.287C115.881 72.7177 115.841 68.9013 119.346 62.9414C127.34 49.3587 110.99 39.7928 102.955 50.1901C92.6613 63.5123 110.277 90.8679 110.277 90.8679H110.287Z" fill="#2D2D2D"/>
<path d="M64.2195 34.0039H80.2883L90.3313 101.116H35.0947V63.0523L64.2195 34.0039Z" fill="#2D2D2D"/>
<path d="M100.375 38.0098H92.3401V63.0515H100.375V38.0098Z" fill="white"/>
<path d="M100.374 38.0095V63.0512H92.34V38.0095H100.374ZM100.374 37.0078H92.34C91.7876 37.0078 91.3357 37.4586 91.3357 38.0095V63.0512C91.3357 63.6021 91.7876 64.0529 92.34 64.0529H100.374C100.927 64.0529 101.379 63.6021 101.379 63.0512V38.0095C101.379 37.4586 100.927 37.0078 100.374 37.0078Z" fill="#2D2D2D"/>
<path d="M81.2925 33.002L110.417 62.0504V101.115H52.1677V62.0504L81.2925 33.002Z" fill="#8FD8F2"/>
<path d="M81.2926 33.0017L110.417 62.0501V101.115H52.1679V62.0501L81.2926 33.0017ZM81.2926 32C81.0315 32 80.7804 32.1002 80.5796 32.2905L51.4548 61.3389C51.264 61.5292 51.1636 61.7796 51.1636 62.0501V101.115C51.1636 101.666 51.6155 102.117 52.1679 102.117H110.417C110.97 102.117 111.422 101.666 111.422 101.115V62.0501C111.422 61.7796 111.311 61.5292 111.13 61.3389L82.0057 32.2905C81.8048 32.0902 81.5537 32 81.2926 32Z" fill="#2D2D2D"/>
<path d="M88.7446 73.0684H74.6843V101.115H88.7446V73.0684Z" fill="#259ED9"/>
<path d="M88.7445 73.0681V101.115H74.6842V73.0681H88.7445ZM88.7445 72.0664H74.6842C74.1319 72.0664 73.6799 72.5172 73.6799 73.0681V101.115C73.6799 101.666 74.1319 102.116 74.6842 102.116H88.7445C89.2968 102.116 89.7488 101.666 89.7488 101.115V73.0681C89.7488 72.5172 89.2968 72.0664 88.7445 72.0664Z" fill="#2D2D2D"/>
<path d="M33.0862 64.0537H49.155L80.2884 33.002H64.2195L33.0862 64.0537Z" fill="#259ED9"/>
<path d="M80.2883 33.0017L49.1549 64.0534H33.0861L64.2194 33.0017H80.2883ZM80.2883 32H64.2094C63.9382 32 63.6871 32.1102 63.4963 32.2905L32.363 63.3422C32.0717 63.6327 31.9914 64.0634 32.142 64.4341C32.2927 64.8047 32.6643 65.0551 33.066 65.0551H49.1348C49.406 65.0551 49.657 64.9449 49.8479 64.7646L80.9712 33.7429C81.1721 33.5626 81.2926 33.3022 81.2926 33.0017C81.2926 32.4508 80.8406 32 80.2883 32Z" fill="#2D2D2D"/>
<path d="M130.162 101.707C129.991 101.707 129.82 101.617 129.73 101.457L124.748 92.8927C124.608 92.6523 124.688 92.3518 124.929 92.2116C125.17 92.0713 125.471 92.1515 125.612 92.3919L130.593 100.956C130.734 101.197 130.654 101.497 130.413 101.637C130.332 101.687 130.242 101.707 130.162 101.707Z" fill="#2D2D2D"/>
<path d="M98.8178 106.643C97.4118 106.643 96.076 106.092 95.0818 105.1C94.0875 104.109 93.5352 102.787 93.5352 101.374C93.5352 99.9619 94.0875 98.6397 95.0818 97.648C96.076 96.6564 97.4017 96.1055 98.8178 96.1055C101.73 96.1055 104.1 98.4694 104.1 101.374C104.1 104.279 101.73 106.643 98.8178 106.643Z" fill="white"/>
<path d="M108.389 106.434L108.921 103.269C108.951 103.089 108.971 102.908 108.991 102.728C109.383 98.6511 107.123 94.7747 103.498 92.8515L97.271 89.5459L97.6426 87.7129L102.624 89.5459L112.888 91.389L115.8 97.9499L113.42 102.477L111.301 104.401L108.389 106.434Z" fill="white"/>
<path d="M97.6424 87.7031L102.624 89.5361L112.888 91.3792L115.8 97.9402L113.42 102.468L111.301 104.391L108.388 106.424L108.921 103.259C108.951 103.079 108.971 102.898 108.991 102.718C109.383 98.6413 107.123 94.7649 103.498 92.8417L97.2709 89.5361L97.6424 87.6931M97.6424 86.6914C97.4717 86.6914 97.301 86.7315 97.1503 86.8216C96.8892 86.9619 96.7084 87.2123 96.6582 87.4927L96.2866 89.3358C96.1962 89.7665 96.4072 90.2073 96.7988 90.4176L103.025 93.7231C106.39 95.5161 108.338 99.0019 107.987 102.628C107.967 102.788 107.947 102.949 107.926 103.109L107.404 106.264C107.334 106.665 107.515 107.065 107.856 107.276C108.017 107.376 108.208 107.426 108.388 107.426C108.589 107.426 108.79 107.366 108.961 107.246L111.873 105.212C111.873 105.212 111.944 105.162 111.974 105.132L114.093 103.209C114.183 103.129 114.254 103.039 114.304 102.938L116.684 98.4109C116.825 98.1405 116.835 97.82 116.714 97.5395L113.802 90.9786C113.671 90.6781 113.39 90.4577 113.058 90.3976L102.875 88.5645L97.9839 86.7615C97.8734 86.7215 97.7529 86.7014 97.6324 86.7014L97.6424 86.6914Z" fill="#2D2D2D"/>
<path d="M98.677 94.3848C94.8105 94.3848 91.667 97.51 91.667 101.376C91.667 105.233 94.8004 108.368 98.677 108.368C102.544 108.368 105.687 105.243 105.687 101.376C105.687 97.52 102.554 94.3848 98.677 94.3848ZM98.677 106.866C95.634 106.866 93.1734 104.411 93.1734 101.376C93.1734 98.3414 95.634 95.8873 98.677 95.8873C101.72 95.8873 104.181 98.3414 104.181 101.376C104.181 104.411 101.72 106.866 98.677 106.866Z" fill="#2D2D2D"/>
<path d="M98.677 94.3836C102.544 94.3836 105.687 97.5089 105.687 101.375C105.687 105.232 102.554 108.367 98.677 108.367C94.8104 108.367 91.6669 105.242 91.6669 101.375C91.6669 97.5189 94.8004 94.3836 98.677 94.3836ZM98.677 106.864C101.72 106.864 104.181 104.41 104.181 101.375C104.181 98.3402 101.72 95.8862 98.677 95.8862C95.6339 95.8862 93.1734 98.3402 93.1734 101.375C93.1734 104.41 95.6339 106.864 98.677 106.864ZM98.677 93.8828C96.6684 93.8828 94.7903 94.6641 93.3642 96.0765C91.9381 97.4888 91.1648 99.372 91.1648 101.375C91.1648 105.502 94.5292 108.868 98.677 108.868C100.686 108.868 102.564 108.086 103.99 106.674C105.406 105.262 106.189 103.379 106.189 101.375C106.189 97.2484 102.825 93.8828 98.677 93.8828ZM98.677 106.364C97.3412 106.364 96.0859 105.843 95.1418 104.901C94.1978 103.96 93.6755 102.708 93.6755 101.375C93.6755 100.043 94.1978 98.791 95.1418 97.8494C96.0859 96.9079 97.3412 96.387 98.677 96.387C101.439 96.387 103.678 98.6307 103.678 101.375C103.678 104.12 101.429 106.364 98.677 106.364Z" fill="#2D2D2D"/>
<path d="M113.259 104.851L95.6038 100.454C94.8807 100.273 94.5091 99.4719 94.8405 98.8108C95.0815 98.33 95.6138 98.0796 96.1461 98.1998L113.782 102.216L113.249 104.861L113.259 104.851Z" fill="#8FD8F2"/>
<path d="M95.895 98.1616C95.9854 98.1616 96.0658 98.1616 96.1562 98.1916L113.792 102.208L113.259 104.853L95.6038 100.455C94.8807 100.275 94.5091 99.4738 94.8405 98.8127C95.0414 98.412 95.4532 98.1716 95.885 98.1716M95.885 97.1699C95.0615 97.1699 94.3183 97.6307 93.9467 98.3619C93.6555 98.9529 93.6354 99.634 93.9166 100.235C94.1978 100.836 94.72 101.267 95.3628 101.427L113.018 105.824C113.099 105.844 113.179 105.854 113.259 105.854C113.45 105.854 113.631 105.804 113.792 105.704C114.023 105.554 114.183 105.324 114.244 105.053L114.776 102.409C114.886 101.878 114.545 101.357 114.013 101.237L96.3771 97.22C96.2164 97.1799 96.0557 97.1699 95.895 97.1699H95.885Z" fill="#2D2D2D"/>
<path d="M121.625 106.435H108.389C108.389 106.435 108.479 104.782 112.095 102.739C113.29 102.088 114.033 100.355 113.681 99.0427C112.878 96.1579 112.095 93.233 112.095 93.233L130.624 91.6504C130.624 91.6504 124.287 92.2013 121.625 96.9292C118.763 102.008 121.625 106.435 121.625 106.435Z" fill="white"/>
<path d="M130.624 91.6504C130.624 91.6504 124.286 92.2013 121.625 96.9292C118.763 102.008 121.625 106.435 121.625 106.435H108.388C108.388 106.435 108.479 104.782 112.094 102.739C113.289 102.088 114.033 100.355 113.681 99.0427C112.878 96.1579 112.094 93.233 112.094 93.233L130.624 91.6504ZM130.624 90.6487C130.624 90.6487 130.563 90.6487 130.533 90.6487L112.004 92.2313C111.713 92.2614 111.441 92.4116 111.271 92.652C111.1 92.8924 111.05 93.2029 111.12 93.4834C111.12 93.4834 111.903 96.4083 112.707 99.3031C112.938 100.155 112.386 101.427 111.602 101.857C107.695 104.061 107.394 106.004 107.374 106.375C107.364 106.645 107.454 106.916 107.645 107.116C107.836 107.316 108.097 107.427 108.378 107.427H121.615C121.987 107.427 122.318 107.226 122.499 106.906C122.68 106.585 122.66 106.195 122.459 105.884C122.358 105.724 119.978 101.877 122.489 97.41C124.859 93.213 130.644 92.642 130.704 92.632C131.256 92.5819 131.668 92.1011 131.618 91.5502C131.568 91.0293 131.136 90.6387 130.624 90.6387V90.6487Z" fill="#2D2D2D"/>
<path d="M132.21 91.6499C132.21 91.6499 124.738 92.2609 120.56 95.8769L109.975 92.7117L112.626 89.5464C114.193 87.5931 116.503 86.5514 118.984 86.902L122.157 87.4329L126.395 84.2676L127.982 85.8502L129.569 86.3811C130.232 86.6616 130.985 87.2726 131.156 87.9637L132.21 91.6599V91.6499Z" fill="#8FD8F2"/>
<path d="M126.386 84.257L127.972 85.8397L129.559 86.3705C130.222 86.651 130.975 87.262 131.146 87.9532L132.201 91.6493C132.201 91.6493 124.729 92.2604 120.551 95.8764L109.965 92.7111L112.617 89.5458C113.972 87.853 115.901 86.8413 118.01 86.8413C118.321 86.8413 118.642 86.8614 118.964 86.9115L122.137 87.4423L126.376 84.2771M126.376 83.2754C126.165 83.2754 125.954 83.3455 125.773 83.4757L121.876 86.3906L119.124 85.9298C118.733 85.8697 118.371 85.8497 118 85.8497C115.64 85.8497 113.39 86.9716 111.823 88.9348L109.192 92.0901C108.971 92.3505 108.901 92.7011 109.001 93.0216C109.102 93.3422 109.353 93.5926 109.674 93.6928L120.259 96.858C120.35 96.8881 120.45 96.8981 120.551 96.8981C120.792 96.8981 121.023 96.818 121.213 96.6577C125.08 93.3121 132.211 92.6811 132.291 92.6711C132.592 92.651 132.863 92.4907 133.034 92.2403C133.205 91.9899 133.255 91.6794 133.175 91.3989L132.12 87.7028C131.849 86.611 130.784 85.8196 129.951 85.469C129.931 85.469 129.901 85.449 129.881 85.439L128.515 84.9882L127.099 83.5759C126.908 83.3856 126.647 83.2854 126.386 83.2854L126.376 83.2754Z" fill="#2D2D2D"/>
<path d="M127.45 85.3176L123.212 87.952L122.148 86.9003L126.386 84.2559L127.45 85.3176Z" fill="white"/>
<path d="M126.386 84.2575L127.44 85.3093L123.202 87.9537L122.147 86.9019L126.386 84.2575ZM126.386 83.2559C126.205 83.2559 126.014 83.3059 125.853 83.4061L121.615 86.0505C121.354 86.2108 121.183 86.4812 121.153 86.7817C121.123 87.0822 121.223 87.3827 121.444 87.6031L122.499 88.6549C122.69 88.8452 122.951 88.9453 123.212 88.9453C123.393 88.9453 123.584 88.8953 123.744 88.7951L127.982 86.1507C128.244 85.9904 128.414 85.72 128.444 85.4195C128.475 85.119 128.374 84.8185 128.153 84.5981L127.099 83.5463C126.908 83.356 126.647 83.2559 126.386 83.2559Z" fill="#2D2D2D"/>
<path d="M109.443 92.7114L107.856 93.2423L100.977 89.5361L101.499 88.4844L111.03 90.5979L109.443 92.7114Z" fill="#8FD8F2"/>
<path d="M101.499 88.4841L111.03 90.5976L109.443 92.7111L107.857 93.242L100.977 89.5459L101.509 88.4941M101.509 87.4924C101.138 87.4924 100.786 87.7028 100.616 88.0434L100.083 89.0951C99.8423 89.5759 100.023 90.1669 100.505 90.4273L107.385 94.1235C107.535 94.2036 107.696 94.2437 107.857 94.2437C107.967 94.2437 108.068 94.2237 108.178 94.1936L109.765 93.6627C109.956 93.6026 110.126 93.4724 110.247 93.3121L111.834 91.1986C112.035 90.9282 112.095 90.5676 111.974 90.247C111.854 89.9265 111.583 89.6861 111.251 89.616L101.72 87.5025C101.65 87.4824 101.57 87.4824 101.499 87.4824L101.509 87.4924Z" fill="#2D2D2D"/>
<path d="M100.444 89.0142L97.2708 89.5451L94.6495 87.8022C94.3282 87.5919 94.2177 87.1712 94.3884 86.8306C94.529 86.5501 94.8203 86.3898 95.1316 86.4099L100.977 86.8907V87.9424L100.444 88.9942V89.0142Z" fill="#8FD8F2"/>
<path d="M95.0714 86.4104C95.0714 86.4104 95.1115 86.4104 95.1316 86.4104L100.977 86.8912V87.9429L100.444 88.9947L97.2708 89.5256L94.6496 87.7827C94.3282 87.5723 94.2177 87.1516 94.3884 86.811C94.519 86.5506 94.7801 86.3903 95.0714 86.3903M95.0714 85.3887C94.3985 85.3887 93.7959 85.7593 93.4946 86.3603C93.0929 87.1516 93.354 88.1232 94.0972 88.614L96.7184 90.357C96.8892 90.4671 97.08 90.5272 97.2708 90.5272C97.321 90.5272 97.3813 90.5272 97.4315 90.5172L100.605 89.9863C100.926 89.9363 101.198 89.7359 101.338 89.4454L101.87 88.3937C101.941 88.2534 101.981 88.1032 101.981 87.9429V86.8912C101.981 86.3703 101.579 85.9396 101.057 85.8895L95.212 85.4087C95.212 85.4087 95.1115 85.4087 95.0613 85.4087L95.0714 85.3887Z" fill="#2D2D2D"/>
<path d="M129.811 94.3848C125.944 94.3848 122.801 97.51 122.801 101.376C122.801 105.233 125.934 108.368 129.811 108.368C133.677 108.368 136.821 105.243 136.821 101.376C136.821 97.52 133.687 94.3848 129.811 94.3848ZM129.811 106.866C126.768 106.866 124.307 104.411 124.307 101.376C124.307 98.3414 126.768 95.8873 129.811 95.8873C132.854 95.8873 135.314 98.3414 135.314 101.376C135.314 104.411 132.854 106.866 129.811 106.866Z" fill="#2D2D2D"/>
<path d="M129.811 94.3836C133.677 94.3836 136.821 97.5089 136.821 101.375C136.821 105.232 133.687 108.367 129.811 108.367C125.944 108.367 122.8 105.242 122.8 101.375C122.8 97.5189 125.934 94.3836 129.811 94.3836ZM129.811 106.864C132.854 106.864 135.314 104.41 135.314 101.375C135.314 98.3402 132.854 95.8862 129.811 95.8862C126.767 95.8862 124.307 98.3402 124.307 101.375C124.307 104.41 126.767 106.864 129.811 106.864ZM129.811 93.8828C127.802 93.8828 125.924 94.6641 124.498 96.0765C123.072 97.4888 122.298 99.372 122.298 101.375C122.298 105.502 125.663 108.868 129.811 108.868C131.819 108.868 133.697 108.086 135.123 106.674C136.539 105.262 137.323 103.379 137.323 101.375C137.323 97.2484 133.958 93.8828 129.811 93.8828ZM129.811 106.364C128.475 106.364 127.219 105.843 126.275 104.901C125.331 103.96 124.809 102.708 124.809 101.375C124.809 100.043 125.331 98.791 126.275 97.8494C127.219 96.9079 128.475 96.387 129.811 96.387C132.572 96.387 134.812 98.6307 134.812 101.375C134.812 104.12 132.562 106.364 129.811 106.364Z" fill="#2D2D2D"/>
<path d="M123.473 89.7751H117.648C117.367 89.7751 117.146 89.5547 117.146 89.2743C117.146 88.9938 117.367 88.7734 117.648 88.7734H123.473C123.754 88.7734 123.975 88.9938 123.975 89.2743C123.975 89.5547 123.754 89.7751 123.473 89.7751Z" fill="#2D2D2D"/>
<path d="M120.3 94.0048C120.099 94.0048 119.908 93.8846 119.838 93.6943C119.737 93.4339 119.858 93.1434 120.119 93.0432L122.77 91.9915C123.212 91.8212 123.584 91.4305 123.714 90.9998C123.785 90.7694 123.825 90.4289 123.604 90.0983L122.539 88.5057C122.439 88.3554 122.429 88.1551 122.519 87.9948C122.61 87.8345 122.78 87.7344 122.961 87.7344H127.732C128.475 87.7344 129.288 88.4656 129.68 88.9364L132.552 91.2803C132.763 91.4506 132.803 91.7711 132.623 91.9815C132.452 92.1918 132.13 92.2319 131.919 92.0516L129.007 89.6776C129.007 89.6776 128.957 89.6375 128.937 89.6075C128.565 89.1467 127.993 88.736 127.742 88.736H123.915L124.458 89.5374C124.809 90.0382 124.889 90.6693 124.699 91.2903C124.468 92.0215 123.885 92.6426 123.162 92.923L120.521 93.9748C120.46 93.9948 120.4 94.0148 120.33 94.0148L120.3 94.0048Z" fill="#2D2D2D"/>
<path d="M68.2369 92.8315H64.2197V90.8281H68.2369C68.9801 90.8281 69.3517 91.7196 68.8295 92.2505L68.247 92.8315H68.2369Z" fill="#8FD8F2"/>
<path d="M68.2368 90.8278C68.98 90.8278 69.3516 91.7193 68.8293 92.2502L68.2469 92.8312H64.2296V90.8278H68.2469M68.2469 89.8262H64.2296C63.6773 89.8262 63.2253 90.2769 63.2253 90.8278V92.8312C63.2253 93.3821 63.6773 93.8328 64.2296 93.8328H68.2469C68.518 93.8328 68.7691 93.7227 68.9599 93.5424L69.5424 92.9614C70.0747 92.4305 70.2253 91.6492 69.9441 90.9681C69.6629 90.2769 68.99 89.8362 68.2469 89.8362V89.8262Z" fill="#2D2D2D"/>
<path d="M69.2412 108.857C72.0145 108.857 74.2627 106.614 74.2627 103.848C74.2627 101.082 72.0145 98.8398 69.2412 98.8398C66.4679 98.8398 64.2197 101.082 64.2197 103.848C64.2197 106.614 66.4679 108.857 69.2412 108.857Z" fill="#8FD8F2"/>
<path d="M69.2409 98.8396C72.0128 98.8396 74.2624 101.083 74.2624 103.848C74.2624 106.613 72.0128 108.856 69.2409 108.856C66.469 108.856 64.2194 106.613 64.2194 103.848C64.2194 101.083 66.469 98.8396 69.2409 98.8396ZM69.2409 97.8379C65.9167 97.8379 63.2151 100.532 63.2151 103.848C63.2151 107.163 65.9167 109.858 69.2409 109.858C72.5651 109.858 75.2667 107.163 75.2667 103.848C75.2667 100.532 72.5651 97.8379 69.2409 97.8379Z" fill="#2D2D2D"/>
<path d="M20.1108 98.8398H21.9688C23.6761 98.8398 25.062 101.084 25.062 103.848C25.062 106.613 23.6761 108.857 21.9688 108.857H20.1108C18.4035 108.857 17.0176 106.613 17.0176 103.848C17.0176 101.084 18.4035 98.8398 20.1108 98.8398Z" fill="white"/>
<path d="M21.9584 98.8396C23.6658 98.8396 25.0517 101.083 25.0517 103.848C25.0517 106.613 23.6658 108.856 21.9584 108.856H20.1005C18.3932 108.856 17.0072 106.613 17.0072 103.848C17.0072 101.083 18.3932 98.8396 20.1005 98.8396H21.9584ZM21.9584 97.8379H20.1005C17.8006 97.8379 16.0029 100.482 16.0029 103.848C16.0029 107.214 17.8006 109.858 20.1005 109.858H21.9584C24.2583 109.858 26.056 107.214 26.056 103.848C26.056 100.482 24.2583 97.8379 21.9584 97.8379Z" fill="#2D2D2D"/>
<path d="M40.9698 95.8359H43.2897C45.4189 95.8359 47.1463 98.7508 47.1463 102.347C47.1463 105.943 45.4189 108.858 43.2897 108.858H40.9698C38.8407 108.858 37.1133 105.943 37.1133 102.347C37.1133 98.7508 38.8407 95.8359 40.9698 95.8359Z" fill="#8FD8F2"/>
<path d="M43.2896 95.8357C45.4188 95.8357 47.1462 98.7505 47.1462 102.347C47.1462 105.943 45.4188 108.857 43.2896 108.857H40.9697C38.8406 108.857 37.1132 105.943 37.1132 102.347C37.1132 98.7505 38.8406 95.8357 40.9697 95.8357H43.2896ZM43.2896 94.834H40.9697C38.238 94.834 36.1089 98.1295 36.1089 102.347C36.1089 106.564 38.248 109.859 40.9697 109.859H43.2896C46.0213 109.859 48.1505 106.564 48.1505 102.347C48.1505 98.1295 46.0113 94.834 43.2896 94.834Z" fill="#2D2D2D"/>
<path d="M58.0929 81.8145H37.103L45.8907 93.3337L67.2321 93.8345L59.8103 82.736C59.4287 82.165 58.7759 81.8145 58.0829 81.8145H58.0929Z" fill="white"/>
<path d="M58.0933 81.8142C58.7862 81.8142 59.429 82.1547 59.8207 82.7357L67.2425 93.8342L45.901 93.3334L37.1134 81.8142H58.1033M58.1033 80.8125H37.1134C36.7318 80.8125 36.3803 81.0329 36.2095 81.3734C36.0388 81.714 36.079 82.1247 36.31 82.4252L45.0976 93.9444C45.2784 94.1848 45.5696 94.335 45.8709 94.335L67.2123 94.8359H67.2324C67.594 94.8359 67.9354 94.6355 68.1162 94.315C68.297 93.9845 68.2769 93.5838 68.076 93.2733L60.6542 82.1748C60.0818 81.3234 59.1277 80.8125 58.0933 80.8125H58.1033Z" fill="#2D2D2D"/>
<path d="M80.2883 104.852H25.0517C24.7806 104.852 27.0704 97.8401 21.0345 97.8401C17.0173 97.8401 16.013 102.848 16.013 102.848L14.0044 99.8435V93.8334C14.0044 92.6715 14.607 92.371 16.013 91.8301C17.8609 91.1289 18.8652 90.4177 20.0302 88.8251C20.6227 88.0037 20.924 87.3927 22.0388 85.8201C22.8423 84.6982 44.1335 93.8334 44.1335 93.8334H67.2324C70.3056 93.9837 72.3845 93.9136 75.3873 94.5847C76.7833 94.775 78.0989 95.3359 79.2137 96.2074C80.1276 97.0187 80.1879 97.6298 80.2883 98.8418V104.852Z" fill="#8FD8F2"/>
<path d="M22.3802 85.7302C25.2424 85.7302 44.1334 93.8437 44.1334 93.8437H67.2323C70.3055 93.994 72.3844 93.9238 75.3872 94.595C76.7832 94.7853 78.0989 95.3462 79.2136 96.2177C80.1275 97.029 80.1878 97.64 80.2882 98.8521V104.862H25.0516C24.7805 104.862 27.0703 97.8504 21.0344 97.8504C17.0172 97.8504 16.0129 102.859 16.0129 102.859L14.0043 99.8537V93.8437C14.0043 92.6818 14.6069 92.3813 16.0129 91.8404C17.8608 91.1392 18.8651 90.428 20.0301 88.8354C20.6227 88.014 20.9239 87.403 22.0387 85.8304C22.0889 85.7703 22.1994 85.7302 22.3802 85.7302ZM22.3802 84.7285C21.8579 84.7285 21.4663 84.8988 21.2252 85.2394C20.5925 86.1409 20.2008 86.7419 19.8996 87.2227C19.6585 87.6033 19.4677 87.9038 19.2166 88.2444C18.2023 89.6267 17.3687 90.2477 15.6514 90.8988C14.3458 91.3996 13 91.9205 13 93.8337V99.8437C13 100.044 13.0603 100.234 13.1707 100.395L15.1793 103.4C15.3702 103.68 15.6815 103.85 16.0129 103.85C16.0732 103.85 16.1435 103.85 16.2037 103.83C16.6054 103.75 16.9168 103.44 16.9971 103.049C17.0273 102.879 17.901 98.842 21.0344 98.842C22.1994 98.842 23.0129 99.1325 23.5251 99.7135C24.5495 100.895 24.2281 103.159 24.0875 104.131C24.0072 104.722 23.9469 105.112 24.2783 105.493C24.4691 105.713 24.7503 105.844 25.0416 105.854H80.2882C80.8406 105.854 81.2925 105.403 81.2925 104.852V98.842C81.2925 98.842 81.2925 98.7819 81.2925 98.7619C81.1921 97.5198 81.1017 96.5482 79.8865 95.4564C79.8664 95.4464 79.8564 95.4263 79.8363 95.4163C78.601 94.4447 77.1247 93.8237 75.568 93.6033C73.1276 93.0624 71.2596 92.9923 69.1003 92.9122C68.5279 92.8921 67.9253 92.8721 67.2825 92.842H44.3443C41.6628 91.6901 25.2826 84.7285 22.3802 84.7285Z" fill="#2D2D2D"/>
<path d="M76.7732 96.3357L78.7818 95.334L80.2883 96.8365V99.8415L76.7732 99.3407V96.3357Z" fill="white"/>
<path d="M22.3802 85.7302C25.2424 85.7302 44.1334 93.8437 44.1334 93.8437H67.2323C70.3055 93.994 72.3844 93.9238 75.3872 94.595C76.7832 94.7853 78.0989 95.3462 79.2136 96.2177C80.1275 97.029 80.1878 97.64 80.2882 98.8521V104.862H25.0516C24.7805 104.862 27.0703 97.8504 21.0344 97.8504C17.0172 97.8504 16.0129 102.859 16.0129 102.859L14.0043 99.8537V93.8437C14.0043 92.6818 14.6069 92.3813 16.0129 91.8404C17.8608 91.1392 18.8651 90.428 20.0301 88.8354C20.6227 88.014 20.9239 87.403 22.0387 85.8304C22.0889 85.7703 22.1994 85.7302 22.3802 85.7302ZM22.3802 84.7285C21.8579 84.7285 21.4663 84.8988 21.2252 85.2394C20.5925 86.1409 20.2008 86.7419 19.8996 87.2227C19.6585 87.6033 19.4677 87.9038 19.2166 88.2444C18.2023 89.6267 17.3687 90.2477 15.6514 90.8988C14.3458 91.3996 13 91.9205 13 93.8337V99.8437C13 100.044 13.0603 100.234 13.1707 100.395L15.1793 103.4C15.3702 103.68 15.6815 103.85 16.0129 103.85C16.0732 103.85 16.1435 103.85 16.2037 103.83C16.6054 103.75 16.9168 103.44 16.9971 103.049C17.0273 102.879 17.901 98.842 21.0344 98.842C22.1994 98.842 23.0129 99.1325 23.5251 99.7135C24.5495 100.895 24.2281 103.159 24.0875 104.131C24.0072 104.722 23.9469 105.112 24.2783 105.493C24.4691 105.713 24.7503 105.844 25.0416 105.854H80.2882C80.8406 105.854 81.2925 105.403 81.2925 104.852V98.842C81.2925 98.842 81.2925 98.7819 81.2925 98.7619C81.1921 97.5198 81.1017 96.5482 79.8865 95.4564C79.8664 95.4464 79.8564 95.4263 79.8363 95.4163C78.601 94.4447 77.1247 93.8237 75.568 93.6033C73.1276 93.0624 71.2596 92.9923 69.1003 92.9122C68.5279 92.8921 67.9253 92.8721 67.2825 92.842H44.3443C41.6628 91.6901 25.2826 84.7285 22.3802 84.7285Z" fill="#2D2D2D"/>
<path d="M56.1849 95.8355C57.621 95.8956 61.2064 96.8372 61.2064 96.8372L62.2107 98.8406H56.1849L54.106 96.5067C54.106 96.5067 54.6081 95.7754 56.1849 95.8355Z" fill="white"/>
<path d="M55.9939 95.8359C56.0542 95.8359 56.1144 95.8359 56.1847 95.8359C57.6209 95.896 61.2063 96.8376 61.2063 96.8376L62.2106 98.8409H56.1847L54.1058 96.507C54.1058 96.507 54.5678 95.8259 55.9939 95.8259M55.9939 94.8242C54.1159 94.8242 53.3928 95.7558 53.2723 95.9461C53.0111 96.3267 53.0513 96.8276 53.3526 97.1681L55.4315 99.502C55.6223 99.7124 55.8935 99.8326 56.1847 99.8326H62.2106C62.5621 99.8326 62.8834 99.6523 63.0642 99.3618C63.245 99.0713 63.2651 98.7007 63.1044 98.3902L62.1001 96.3868C61.9695 96.1264 61.7385 95.9361 61.4573 95.866C61.0757 95.7658 57.7213 94.8943 56.2149 94.8342C56.1345 94.8342 56.0542 94.8342 55.9839 94.8342L55.9939 94.8242Z" fill="#2D2D2D"/>
<path d="M23.0427 92.8328L20.0298 88.8261C20.542 88.1049 21.024 87.2836 22.0384 85.8211C22.8418 84.6692 24.8002 83.4472 26.0556 82.8161L25.0513 81.8145H39.7844C40.5979 81.8145 41.331 82.2852 41.6725 83.0265L46.1416 92.8328H23.0427Z" fill="white"/>
<path d="M39.7847 81.8142C40.5982 81.8142 41.3313 82.285 41.6728 83.0262L46.1419 92.8325H23.043L20.0301 88.8259C20.5423 88.1047 21.0243 87.2833 22.0387 85.8208C22.8421 84.6689 24.8005 83.4469 26.0559 82.8158L25.0516 81.8142H39.7847ZM39.7847 80.8125H25.0516C24.6499 80.8125 24.2783 81.0529 24.1276 81.4335C23.977 81.8042 24.0573 82.2349 24.3486 82.5254L24.4088 82.5855C23.1836 83.3267 21.888 84.2983 21.2252 85.2499C20.6427 86.0813 20.2309 86.7123 19.9096 87.2232C19.6585 87.6138 19.4375 87.9444 19.2266 88.2549C18.9756 88.6055 18.9856 89.0863 19.2467 89.4369L22.2596 93.4436C22.4504 93.694 22.7517 93.8442 23.0631 93.8442H46.162C46.5035 93.8442 46.8248 93.6739 47.0056 93.3835C47.1864 93.093 47.2165 92.7324 47.0759 92.4218L42.6068 82.6155C42.1046 81.5237 41.0099 80.8225 39.8048 80.8225L39.7847 80.8125Z" fill="#2D2D2D"/>
<path d="M33.0902 81.2346L31.0872 93.25L32.0779 93.4143L34.0809 81.3989L33.0902 81.2346Z" fill="#2D2D2D"/>
<path d="M76.7729 99.8432C76.4917 99.8432 76.2708 99.6228 76.2708 99.3424V96.3373C76.2708 96.147 76.3812 95.9767 76.552 95.8866L78.5606 94.8849C78.8116 94.7647 79.1129 94.8649 79.2334 95.1053C79.354 95.3557 79.2535 95.6562 79.0125 95.7764L77.2851 96.6378V99.3323C77.2851 99.6128 77.0641 99.8332 76.7829 99.8332L76.7729 99.8432Z" fill="#2D2D2D"/>
<path d="M80.2885 99.8415H61.7089C61.4277 99.8415 61.2068 99.6211 61.2068 99.3407C61.2068 99.0602 61.4277 98.8398 61.7089 98.8398H80.2885C80.5697 98.8398 80.7907 99.0602 80.7907 99.3407C80.7907 99.6211 80.5697 99.8415 80.2885 99.8415Z" fill="#2D2D2D"/>
<path d="M49.1551 108.997C51.9284 108.997 54.1766 106.755 54.1766 103.989C54.1766 101.223 51.9284 98.9805 49.1551 98.9805C46.3818 98.9805 44.1335 101.223 44.1335 103.989C44.1335 106.755 46.3818 108.997 49.1551 108.997Z" fill="white"/>
<path d="M49.1547 98.9802C51.9266 98.9802 54.1762 101.224 54.1762 103.989C54.1762 106.753 51.9266 108.997 49.1547 108.997C46.3828 108.997 44.1332 106.753 44.1332 103.989C44.1332 101.224 46.3828 98.9802 49.1547 98.9802ZM49.1547 97.9785C45.8305 97.9785 43.1289 100.673 43.1289 103.989C43.1289 107.304 45.8305 109.999 49.1547 109.999C52.479 109.999 55.1805 107.304 55.1805 103.989C55.1805 100.673 52.479 97.9785 49.1547 97.9785Z" fill="#2D2D2D"/>
<path d="M40.1164 92.8315H46.1322L45.1279 90.8281H38.9916C38.6602 90.8281 38.4995 91.2188 38.7305 91.4592L40.1064 92.8315H40.1164Z" fill="#8FD8F2"/>
<path d="M45.1277 90.8278L46.132 92.8312H40.1162L38.7403 91.4589C38.5093 91.2285 38.67 90.8278 39.0014 90.8278H45.1377M45.1377 89.8262H39.0014C38.4491 89.8262 37.9469 90.1567 37.736 90.6676C37.5251 91.1784 37.6356 91.7694 38.0373 92.1601L39.4132 93.5323C39.604 93.7227 39.8551 93.8228 40.1262 93.8228H46.142C46.4935 93.8228 46.8149 93.6425 46.9957 93.352C47.1764 93.0616 47.1965 92.6909 47.0358 92.3804L46.0315 90.3771C45.8608 90.0365 45.5093 89.8262 45.1377 89.8262Z" fill="#2D2D2D"/>
<path d="M85.8117 90.0971C86.3663 90.0971 86.816 89.6486 86.816 89.0954C86.816 88.5422 86.3663 88.0938 85.8117 88.0938C85.257 88.0938 84.8074 88.5422 84.8074 89.0954C84.8074 89.6486 85.257 90.0971 85.8117 90.0971Z" fill="#2D2D2D"/>
<path d="M81.7948 61.0469C85.6714 61.0469 88.8249 64.1921 88.8249 68.0586H74.7646C74.7646 64.1921 77.9182 61.0469 81.7948 61.0469Z" fill="white"/>
<path d="M81.7947 61.0505C85.6813 61.0505 88.8248 64.1857 88.8248 68.0622H74.7646C74.7646 64.1857 77.908 61.0505 81.7947 61.0505ZM81.7947 60.0488C77.3657 60.0488 73.7603 63.6448 73.7603 68.0622C73.7603 68.6131 74.2122 69.0639 74.7646 69.0639H88.8248C89.3772 69.0639 89.8291 68.6131 89.8291 68.0622C89.8291 63.6448 86.2236 60.0488 81.7947 60.0488Z" fill="#2D2D2D"/>
</g>
<defs>
<clipPath id="clip0_3256_974">
<rect width="124.312" height="78" fill="white" transform="translate(13 32)"/>
</clipPath>
</defs>
</svg>
