<svg xmlns="http://www.w3.org/2000/svg" width="20" height="20" viewBox="0 0 20 20"><title>instagram</title><path d="M12.7,18H7.3a5.53712,5.53712,0,0,1-1.8-.2,3.76551,3.76551,0,0,1-2.9-2.4,5.70019,5.70019,0,0,1-.4-2.2V7.3a5.53712,5.53712,0,0,1,.2-1.8,3.61928,3.61928,0,0,1,2.3-3,5.70019,5.70019,0,0,1,2.2-.4h5.9a5.53712,5.53712,0,0,1,1.8.2,4.082,4.082,0,0,1,3,2.4A5.3815,5.3815,0,0,1,18,6.9v5.9a5.53712,5.53712,0,0,1-.2,1.8,3.76551,3.76551,0,0,1-2.4,2.9,5.70019,5.70019,0,0,1-2.2.4A1.0873,1.0873,0,0,1,12.7,18ZM3.5,10h0v2a12.75057,12.75057,0,0,0,.1,1.9,2.92833,2.92833,0,0,0,.7,1.6,3.45593,3.45593,0,0,0,2.1,1,26.20206,26.20206,0,0,0,2.8.1H12a12.75057,12.75057,0,0,0,1.9-.1,2.92833,2.92833,0,0,0,1.6-.7,3.45593,3.45593,0,0,0,1-2.1,26.20206,26.20206,0,0,0,.1-2.8V8.1a12.75057,12.75057,0,0,0-.1-1.9,2.92833,2.92833,0,0,0-.7-1.6,3.45593,3.45593,0,0,0-2.1-1,26.20206,26.20206,0,0,0-2.8-.1H8.1A14.76871,14.76871,0,0,0,6,3.6a2.55423,2.55423,0,0,0-2.3,2,5.01937,5.01937,0,0,0-.2,1.2Z"/><path d="M14.1,10A4.1,4.1,0,1,1,10,5.9,4.11833,4.11833,0,0,1,14.1,10ZM10,12.7a2.65047,2.65047,0,1,0-2.6-2.6A2.66916,2.66916,0,0,0,10,12.7Z"/><path d="M15.3,5.8a1,1,0,1,1-1-1A1.00209,1.00209,0,0,1,15.3,5.8Z"/></svg>