<?xml version="1.0" encoding="UTF-8"?><svg id="a" xmlns="http://www.w3.org/2000/svg" viewBox="0 0 150 150"><g style="isolation:isolate;"><circle cx="41.006" cy="94.638" r="7.776" style="fill:#fff;"/><circle cx="107.14" cy="95.062" r="7.776" style="fill:#fff;"/><path d="M65.959,100.852l-16.624-16.846,38.703-13.195,3.626-2.248,2.262,2.101-13.983,29.839-13.984.35Z" style="fill:#fff;"/><path d="M66.135,77.83l-.204-.57c-.201-.561-.792-.882-1.372-.744l-2.191.521c-3.182.756-6.533.227-9.328-1.472l-2.005-1.219c-.433-.263-.994-.164-1.311.232h0c-.348.435-.277,1.069.157,1.417.005.004.01.008.016.012l6.562,6.325,9.091-3.263c.504-.181.766-.736.585-1.24Z" style="fill:#8fd8f2;"/><path d="M56.458,82.832c-.129,0-.254-.05-.347-.14l-6.562-6.325c-.302-.242-.494-.594-.536-.979-.05-.402.065-.807.319-1.123.475-.59,1.313-.738,1.961-.347l2.005,1.219c2.679,1.638,5.899,2.146,8.953,1.413l2.191-.521c.828-.197,1.671.26,1.959,1.061l.204.57c.273.764-.124,1.604-.887,1.879l-9.091,3.263c-.054.019-.111.029-.169.029ZM50.511,74.7c-.281,0-.508.227-.508.508,0,.158.073.307.199.404l6.38,6.146,8.799-3.158c.244-.088.37-.356.283-.6h0s-.204-.57-.204-.57c-.116-.321-.454-.505-.787-.426l-2.191.521c-3.31.796-6.8.245-9.704-1.531l-2.005-1.219c-.079-.048-.17-.074-.263-.074Z" style="fill:#2d2d2d;"/><line x1="87.587" y1="71.641" x2="90.636" y2="76.476" style="fill:none;"/><path d="M90.636,76.977c-.172,0-.332-.088-.423-.233l-3.049-4.836c-.147-.234-.077-.542.156-.689s.542-.077.689.156l3.049,4.836c.147.234.077.542-.157.69-.08.05-.172.077-.266.077h0Z" style="fill:#2d2d2d;"/><path d="M45.606,81.54h0c-3.485-1.186-7.292-.981-10.63.572-.194.079-.392.19-.569.282-2.351,1.227-5.535,0-7.051-1.487,7.809-7.546,20.258-7.333,27.804.476,3.546,3.67,5.527,8.575,5.523,13.678h-5.394c.11-6.15-3.825-11.645-9.684-13.522Z" style="fill:#8fd8f2;"/><path d="M60.684,95.562h-5.394c-.276,0-.5-.223-.5-.499h0c.107-5.936-3.691-11.24-9.345-13.05-1.426-.498-2.928-.746-4.439-.734-2.013-.016-4.003.424-5.821,1.288-.159.065-.301.142-.434.212l-.113.059c-2.43,1.27-5.854.171-7.631-1.573-.197-.193-.2-.51-.007-.707.003-.003.006-.007.01-.01,8.008-7.738,20.773-7.52,28.511.488,3.636,3.763,5.667,8.793,5.664,14.026,0,.276-.223.5-.499.5h0ZM55.79,95.062h0ZM55.783,94.562h4.395c-.268-10.58-9.061-18.939-19.641-18.672-4.613.117-9.029,1.894-12.436,5.006,1.463,1.159,4.119,2.077,6.076,1.055l.107-.056c.162-.086.335-.176.504-.246,3.449-1.598,7.38-1.807,10.979-.583h.001c5.889,1.883,9.92,7.314,10.015,13.496h0Z" style="fill:#2d2d2d;"/><path d="M89.072,70.621l-2.073-2.994c-1.918-2.77-5.718-3.462-8.489-1.544-.111.077-.22.158-.326.242l-10.494,8.35c-.378.301-.634.73-.719,1.206l-.509,2.861,22.611-8.121Z" style="fill:#8fd8f2;"/><path d="M66.462,79.242c-.276,0-.5-.224-.5-.5,0-.029.003-.059.008-.087l.509-2.861c.106-.596.426-1.133.9-1.51l10.494-8.35c2.853-2.27,7.006-1.797,9.276,1.056.091.115.178.232.262.352l2.073,2.994c.157.227.1.539-.127.696-.036.025-.075.045-.115.059l-22.61,8.121c-.054.019-.111.029-.169.029ZM81.964,65.496c-1.261,0-2.485.43-3.468,1.22l-10.494,8.35c-.284.225-.475.546-.539.903l-.358,2.011,21.185-7.609-1.702-2.459c-.878-1.28-2.251-2.133-3.787-2.353-.277-.041-.557-.062-.837-.062Z" style="fill:#2d2d2d;"/><path d="M92.64,95c0,8.008,6.492,14.5,14.5,14.5s14.5-6.492,14.5-14.5-6.492-14.5-14.5-14.5-14.5,6.492-14.5,14.5h0ZM99.14,95c0-4.418,3.582-8,8-8s8,3.582,8,8-3.582,8-8,8-8-3.582-8-8Z" style="fill:#2d2d2d;"/><path d="M107.14,110c-8.284,0-15-6.716-15-15s6.716-15,15-15,15,6.716,15,15c-.009,8.28-6.72,14.991-15,15ZM107.14,81c-7.732,0-14,6.268-14,14s6.268,14,14,14,14-6.268,14-14h0c-.009-7.728-6.272-13.991-14-14ZM107.14,103.5c-4.694,0-8.5-3.806-8.5-8.5s3.806-8.5,8.5-8.5,8.5,3.806,8.5,8.5c-.005,4.692-3.808,8.495-8.5,8.5ZM107.14,87.5c-4.142,0-7.5,3.358-7.5,7.5s3.358,7.5,7.5,7.5,7.5-3.358,7.5-7.5h0c-.005-4.14-3.36-7.495-7.5-7.5Z" style="fill:#2d2d2d;"/><path d="M26.506,95c0,8.008,6.492,14.5,14.5,14.5s14.5-6.492,14.5-14.5-6.492-14.5-14.5-14.5-14.5,6.492-14.5,14.5h0ZM33.006,95c0-4.418,3.582-8,8-8s8,3.582,8,8-3.582,8-8,8-8-3.582-8-8Z" style="fill:#2d2d2d;"/><path d="M41.006,110c-8.284,0-15-6.716-15-15s6.716-15,15-15,15,6.716,15,15c-.009,8.28-6.72,14.991-15,15ZM41.006,81c-7.732,0-14,6.268-14,14s6.268,14,14,14,14-6.268,14-14h0c-.009-7.728-6.272-13.991-14-14ZM41.006,103.5c-4.694,0-8.5-3.806-8.5-8.5s3.806-8.5,8.5-8.5,8.5,3.806,8.5,8.5c-.005,4.692-3.808,8.495-8.5,8.5ZM41.006,87.5c-4.142,0-7.5,3.358-7.5,7.5s3.358,7.5,7.5,7.5,7.5-3.358,7.5-7.5h0c-.005-4.14-3.36-7.495-7.5-7.5Z" style="fill:#2d2d2d;"/><path d="M95.838,65.062h2.846v7h-2.846s-2.96-1.024-2.96-3.5,2.96-3.5,2.96-3.5Z" style="fill:#8fd8f2;"/><path d="M98.683,72.562h-2.846c-.056,0-.111-.009-.164-.027-.135-.047-3.296-1.173-3.296-3.973s3.161-3.926,3.296-3.973c.053-.018.108-.027.164-.027h2.846c.276,0,.5.223.5.499h0v7.001c0,.276-.223.5-.499.5h0ZM95.929,71.562h2.254v-6h-2.254c-.423.169-2.551,1.114-2.551,3s2.128,2.831,2.551,3Z" style="fill:#2d2d2d;"/><path d="M27.999,76.062h.683s1.268.439,1.268,1.5-1.268,1.5-1.268,1.5h-1.998v-3h1.315Z" style="fill:#8fd8f2;"/><path d="M28.682,79.562h-1.999c-.276,0-.5-.223-.5-.499h0v-3.001c0-.276.223-.5.499-.5h1.999c.056,0,.111.009.164.027.065.023,1.604.572,1.604,1.973s-1.539,1.95-1.604,1.973c-.053.018-.108.027-.164.027ZM27.183,78.562h1.402c.214-.093.864-.424.864-1s-.648-.906-.864-1h-1.402v2Z" style="fill:#2d2d2d;"/><path d="M105.726,92.972c-.181,0-.348-.098-.437-.256l-14.475-25.885-4.25-7.362h-6.881c-.276,0-.5-.224-.5-.5s.224-.5.5-.5h7.169c.179,0,.344.095.433.25l4.398,7.618,14.479,25.891c.135.241.049.546-.192.68-.075.042-.159.064-.244.064h0Z" style="fill:#2d2d2d;"/><line x1="56.458" y1="82.332" x2="89.072" y2="70.621" style="fill:none;"/><path d="M56.458,82.832c-.276,0-.5-.224-.5-.5,0-.211.133-.4.331-.471l32.614-11.711c.26-.095.547.039.641.299.095.259-.039.547-.299.641-.002,0-.003.001-.005.002l-32.614,11.711c-.054.019-.111.029-.169.029Z" style="fill:#2d2d2d;"/><path d="M63.749,88.513c-.111,0-.219-.037-.307-.105l-7.291-5.681c-.219-.168-.261-.482-.094-.701.168-.219.482-.261.701-.094.002.002.005.004.007.005l7.002,5.456,28.225-19.385c.228-.156.539-.099.695.129s.099.539-.129.695l-28.527,19.592c-.083.057-.182.088-.283.088Z" style="fill:#2d2d2d;"/><line x1="63.749" y1="88.013" x2="65.555" y2="100.71" style="fill:none;"/><path d="M65.555,101.21c-.249,0-.459-.183-.495-.43l-1.806-12.697c-.038-.274.152-.526.426-.565.273-.038.525.151.564.424l1.806,12.697c.039.273-.151.526-.424.565-.024.003-.048.005-.072.005h0Z" style="fill:#2d2d2d;"/><line x1="81.676" y1="79.484" x2="71.34" y2="87.14" style="fill:none;"/><path d="M71.341,87.641c-.276,0-.5-.223-.501-.499,0-.159.075-.308.202-.403l10.336-7.657c.222-.164.535-.118.7.104s.118.535-.104.7h0l-10.336,7.657c-.086.064-.19.098-.297.098Z" style="fill:#2d2d2d;"/><line x1="84.439" y1="82.018" x2="78.436" y2="93.708" style="fill:none;"/><path d="M78.435,94.208c-.276,0-.5-.224-.5-.5,0-.079.019-.158.055-.228l6.003-11.689c.128-.245.43-.34.675-.212.243.127.339.425.215.669l-6.003,11.689c-.086.167-.258.272-.445.272Z" style="fill:#2d2d2d;"/><circle cx="74.183" cy="91.562" r="5.5" style="fill:#8fd8f2;"/><path d="M74.183,97.562c-3.314,0-6-2.686-6-6s2.686-6,6-6,6,2.686,6,6c-.004,3.312-2.688,5.996-6,6ZM74.183,86.562c-2.761,0-5,2.239-5,5s2.239,5,5,5,5-2.239,5-5c-.003-2.76-2.24-4.997-5-5Z" style="fill:#2d2d2d;"/><circle cx="83.183" cy="80.562" r="2.5" style="fill:#8fd8f2;"/><path d="M83.183,83.562c-1.657,0-3-1.343-3-3s1.343-3,3-3,3,1.343,3,3c-.002,1.656-1.344,2.998-3,3ZM83.183,78.562c-1.105,0-2,.895-2,2s.895,2,2,2,2-.895,2-2c-.001-1.104-.896-1.999-2-2Z" style="fill:#2d2d2d;"/><path d="M79.126,101.562h-13.873c-.146,0-.285-.064-.38-.175l-4.969-5.825h-10.72v-1h10.951c.146,0,.285.064.38.175l4.969,5.825h13.326l14.363-30.332.903.428-14.499,30.618c-.082.175-.258.286-.452.286Z" style="fill:#2d2d2d;"/><path d="M41.006,98.062h0c-1.657,0-3-1.343-3-3h0c0-1.657,1.343-3,3-3h0c1.657,0,3,1.343,3,3h0c0,1.657-1.343,3-3,3Z" style="fill:#8fd8f2;"/><path d="M41.006,98.562c-1.933,0-3.5-1.567-3.5-3.5s1.567-3.5,3.5-3.5,3.5,1.567,3.5,3.5c-.002,1.932-1.568,3.498-3.5,3.5ZM41.006,92.562c-1.381,0-2.5,1.119-2.5,2.5s1.119,2.5,2.5,2.5,2.5-1.119,2.5-2.5c-.002-1.38-1.12-2.498-2.5-2.5Z" style="fill:#2d2d2d;"/><path d="M107.14,98.062h0c-1.657,0-3-1.343-3-3h0c0-1.657,1.343-3,3-3h0c1.657,0,3,1.343,3,3h0c0,1.657-1.343,3-3,3Z" style="fill:#8fd8f2;"/><path d="M107.14,98.562c-1.933,0-3.5-1.567-3.5-3.5s1.567-3.5,3.5-3.5,3.5,1.567,3.5,3.5c-.002,1.932-1.568,3.498-3.5,3.5ZM107.14,92.562c-1.381,0-2.5,1.119-2.5,2.5s1.119,2.5,2.5,2.5,2.5-1.119,2.5-2.5c-.002-1.38-1.12-2.498-2.5-2.5Z" style="fill:#2d2d2d;"/></g></svg>