<svg xmlns="http://www.w3.org/2000/svg" viewBox="0 0 150 150">
  <path d="m61.7813,69.109c-4.047,0-7.3276-3.2809-7.3276-7.3278,0-4.047,3.2809-7.3276,7.3278-7.3276,4.0469,0,7.3276,3.2808,7.3276,7.3277-.0046,4.0451-3.2827,7.3232-7.3278,7.3277Z" style="fill: #8fd8f2; stroke: #2d2d2d;"/>
  <path d="m61.7813,95.5464c-4.047,0-7.3276-3.2809-7.3276-7.3278s3.2809-7.3276,7.3278-7.3276c4.0469,0,7.3276,3.2808,7.3276,7.3277-.0046,4.0451-3.2827,7.3232-7.3278,7.3277Z" style="fill: #2d2d2d; stroke: #2d2d2d;"/>
  <path d="m88.2187,95.5464c-4.047,0-7.3276-3.2809-7.3276-7.3278s3.2809-7.3276,7.3278-7.3276c4.0469,0,7.3276,3.2808,7.3276,7.3277-.0046,4.0451-3.2827,7.3232-7.3278,7.3277Z" style="fill: #fff; stroke: #2d2d2d;"/>
  <path d="m88.2186,69.109c-4.047,0-7.3276-3.2809-7.3276-7.3278,0-4.047,3.2809-7.3276,7.3278-7.3276,4.0469,0,7.3276,3.2808,7.3276,7.3277-.0046,4.0451-3.2827,7.3232-7.3278,7.3277Z" style="fill: #0077b3; stroke: #2d2d2d;"/>
</svg>