<svg xmlns="http://www.w3.org/2000/svg" xmlns:xlink="http://www.w3.org/1999/xlink" width="20" height="20" viewBox="0 0 20 20"><title>YouTube</title><path d="M18.085,4.915a1.62791,1.62791,0,0,0-.99194-.61,4.74908,4.74908,0,0,1-.76294-.15295q-1.908-.152-6.33106-.152t-6.331.152a4.77766,4.77766,0,0,1-.763.15295,1.6256,1.6256,0,0,0-.992.61,3.32,3.32,0,0,0-.763,1.754q-.154,1.83-.152,2.9v1.37305q0,1.069.152,2.9a3.77783,3.77783,0,0,0,.763,1.754,1.65122,1.65122,0,0,0,1.068.611,8.49964,8.49964,0,0,1,.915.152q1.068.07617,6.1.152,4.42291-.0749,6.33106-.152a4.9182,4.9182,0,0,1,.76294-.152,1.62167,1.62167,0,0,0,.99194-.611,3.78862,3.78862,0,0,0,.76294-1.754q.152-1.83.152-2.9V9.56909q0-1.06786-.152-2.9A3.33368,3.33368,0,0,0,18.085,4.915Zm-9.99194,7.78v-4.958l4.80505,2.441Z"/></svg>