<?xml version="1.0" encoding="UTF-8"?>
<svg width="70px" height="32px" viewBox="0 0 70 32" version="1.1" xmlns="http://www.w3.org/2000/svg" xmlns:xlink="http://www.w3.org/1999/xlink">
    <!-- Generator: Sketch 52.6 (67491) - http://www.bohemiancoding.com/sketch -->
    <title>logo-adp-fy19</title>
    <desc>Created with Sketch.</desc>
    <g id="Page-1" stroke="none" stroke-width="1" fill="none" fill-rule="evenodd">
        <g id="logo-adp-fy19" fill="#FFFFFF" fill-rule="nonzero">
            <path d="M44,15.9 C43.9835353,20.9189555 39.9189555,24.9835353 34.9,25 L31.4,25 L31.4,21 L34.9,21 C37.7166522,21 40,18.7166522 40,15.9 C40,13.0833478 37.7166522,10.8 34.9,10.8 L31.4,10.8 L31.4,6.8 L34.9,6.8 C39.9189555,6.81646472 43.9835353,10.8810445 44,15.9 Z M24.6,6.8 L24.6,14.2 L18.3,14.2 L16,18.2 L28.6,18.2 L28.6,6.8 L24.6,6.8 Z M70,12.5 C70,19.4035594 64.4035594,25 57.5,25 L57.5,31.8 L46.7,31.8 L46.7,26.5 C43.6928434,29.9131698 39.3486721,31.8479688 34.8,31.8 L24.6,31.8 L24.6,25 L16.6,25 L12.6,31.8 L0,31.8 L18.5,0 L34.9,0 C39.4303714,0.0383261041 43.7409416,1.95815988 46.8,5.3 L46.8,0 L57.6,0 C64.469059,0.0440242854 70.0111494,5.63080898 70,12.5 Z M34.9,27.8 C39.5117227,27.8113194 43.7169285,25.1635972 45.7,21 L50.8,21 L50.8,27.8 L53.6,27.8 L53.6,21 L57.6,21 C59.8551539,21.0026578 62.0187067,20.1079782 63.6133425,18.5133425 C65.2079782,16.9187067 66.1026578,14.7551539 66.1,12.5 C66.0560474,7.78486188 62.2153297,3.98880367 57.5,4 L50.7,4 L50.7,14.2 L46.7,14.2 C45.8138797,8.35879697 40.807949,4.03163657 34.9,4 L20.9,4 L7,27.8000362 L10.3,27.8 L14.3,21 L28.6,21 L28.6,27.8 L34.9,27.8 Z M57.5,6.8 L53.5,6.8 L53.5,10.8 L57.5,10.8 C57.9516845,10.7973193 58.3856454,10.975565 58.7050402,11.2949598 C59.024435,11.6143546 59.2026807,12.0483155 59.2,12.5 C59.1738484,13.4278359 58.4278359,14.1738484 57.5,14.2 L53.5,14.2 L53.5,18.2 L57.5,18.2 C60.6480231,18.2 63.2,15.6480231 63.2,12.5 C63.1675158,9.3655309 60.6344691,6.83248415 57.5,6.8 Z" id="Shape"></path>
            <path d="M63.1,29.8 C63.1,30.6836556 62.3836556,31.4 61.5,31.4 C60.6163444,31.4 59.9,30.6836556 59.9,29.8 C59.9,28.9163444 60.6163444,28.2 61.5,28.2 C61.925987,28.1945728 62.3361142,28.3614003 62.6373569,28.6626431 C62.9385997,28.9638858 63.1054272,29.374013 63.1,29.8 M63.5,29.8 C63.5,28.6954305 62.6045695,27.8 61.5,27.8 C60.3954305,27.8 59.5,28.6954305 59.5,29.8 C59.5,30.9045695 60.3954305,31.8 61.5,31.8 C62.6045695,31.8 63.5,30.9045695 63.5,29.8" id="Shape"></path>
            <path d="M61.6,28.9 C61.8209139,28.9 62,29.0790861 62,29.3 C62,29.5209139 61.8209139,29.7 61.6,29.7 L61.2,29.7 L61.2,28.9 L61.6,28.9 Z M62.1,28.8 C61.9633306,28.6745408 61.785491,28.603405 61.6,28.6 L60.8,28.6 L60.8,31 L61.1,31 L61.1,30.1 L61.5,30.1 L62,31 L62.4,31 L61.8,30 C61.9,30 62,29.9 62.1,29.8 C62.1795374,29.6826655 62.2149638,29.5409598 62.2,29.4 C62.2876593,29.1977496 62.2485157,28.9628879 62.1,28.8 Z" id="Shape"></path>
        </g>
    </g>
</svg>