<svg xmlns="http://www.w3.org/2000/svg" viewBox="0 0 20 20" width="20" height="20">
      <path class="cls-2" d="m14.25,5.61c-.75-.49-1.3-1.28-1.47-2.19-.04-.2-.06-.4-.06-.61h-2.4v9.63c-.04,1.08-.93,1.94-2.02,1.94-.34,0-.66-.08-.94-.23-.64-.34-1.08-1.01-1.08-1.79,0-1.11.91-2.02,2.02-2.02.21,0,.41.03.6.09v-2.45c-.2-.03-.39-.04-.6-.04-2.44,0-4.42,1.99-4.42,4.42,0,1.5.75,2.82,1.89,3.62.72.5,1.59.8,2.54.8,2.44,0,4.42-1.98,4.42-4.42v-4.89c.94.68,2.1,1.08,3.34,1.08v-2.4c-.67,0-1.3-.2-1.82-.54h0Z"/>
</svg>