<svg width="32" height="33" viewBox="0 0 32 33" fill="none" xmlns="http://www.w3.org/2000/svg">
<path d="M25.1835 3.07605C25.5523 3.07605 25.8952 3.25378 26.1096 3.54783L26.1933 3.68081L31.1893 12.9603L31.2473 13.1032L31.2658 13.1645L31.2966 13.3218L31.3055 13.4664C31.3055 13.5727 31.2912 13.6756 31.2644 13.7733L31.1919 13.9673L31.1345 14.0729C31.1006 14.1277 31.0622 14.18 31.0189 14.2294L31.1104 14.1103L31.0729 14.1629L16.9127 30.3343C16.7901 30.4979 16.632 30.6169 16.4576 30.6913L16.3073 30.7421L16.1891 30.7689L15.999 30.7841L15.8454 30.7739L15.6649 30.7347C15.5728 30.7081 15.4831 30.6688 15.3992 30.6177L15.3851 30.6062C15.313 30.5626 15.2456 30.5093 15.1844 30.4473L0.964038 14.2133L0.923868 14.1629L0.862526 14.0729C0.777594 13.935 0.720814 13.7778 0.700117 13.6093L0.691406 13.4664L0.695769 13.365L0.715992 13.2284C0.725468 13.1823 0.737562 13.1381 0.75212 13.095L0.787055 13.0049L0.829919 12.9167L5.80362 3.68081C5.97921 3.35477 6.29787 3.13628 6.65711 3.08675L6.81326 3.07605H25.1835ZM20.588 14.6209H11.4044L15.9984 26.4536L20.588 14.6209ZM8.94123 14.6209H4.37926L12.5709 23.9706L8.94123 14.6209ZM27.6147 14.6209H23.0543L19.4292 23.9645L27.6147 14.6209ZM11.3631 5.38502H7.49602L3.76385 12.3119H9.15862L11.3631 5.38502ZM18.2212 5.38502H13.774L11.5682 12.3119H20.4242L18.2212 5.38502ZM24.4993 5.38502H20.6324L22.8369 12.3119H28.2286L24.4993 5.38502Z" fill="#091F2C"/>
</svg>
