<svg width="32" height="32" viewBox="0 0 32 32" fill="none" xmlns="http://www.w3.org/2000/svg">
<g clip-path="url(#clip0_4544_23138)">
<path d="M32 26V28H28V32H26V28H22V26H26V22H28V26H32Z" fill="#091F2C"/>
<path d="M21.2 21.9999H23.2C23.2 21.5999 23 21.3999 23 20.9999C22.5173 20.0576 21.9121 19.1834 21.2 18.3999L19 16.1999L16.2 14.7999C16.8205 14.4434 17.3643 13.9676 17.8 13.3999L19 11.7999C19.3484 11.2397 19.6177 10.6339 19.8 9.99989C19.9652 9.34678 20.0326 8.67277 20 7.99989C20.0159 6.90384 19.8119 5.81573 19.4 4.79989C18.9862 3.87586 18.3712 3.05591 17.6 2.39989C16.944 1.6287 16.124 1.01373 15.2 0.599886C14.1842 0.188011 13.096 -0.0160102 12 -0.000114255C10.904 -0.0160102 9.81584 0.188011 8.8 0.599886C7.87597 1.01373 7.05602 1.6287 6.4 2.39989C5.62881 3.05591 5.01385 3.87586 4.6 4.79989C4.18812 5.81573 3.9841 6.90384 4 7.99989C3.99446 9.33231 4.33932 10.6428 5 11.7999C5.65662 13.0263 6.6217 14.0603 7.8 14.7999C6.63362 15.2022 5.54954 15.812 4.6 16.5999C3.64857 17.3134 2.83526 18.1945 2.2 19.1999C1.47021 20.1565 0.927389 21.2421 0.6 22.3999C0.208336 23.56 0.00575071 24.7755 0 25.9999H2C2.01983 25.1195 2.15429 24.2455 2.4 23.3999C2.57023 22.5413 2.91021 21.7253 3.4 20.9999C3.8197 20.2498 4.36029 19.574 5 18.9999C5.57413 18.3602 6.24987 17.8196 7 17.3999C7.72545 16.9101 8.5414 16.5701 9.4 16.3999L12 15.9999C13.1607 15.9883 14.3134 16.1917 15.4 16.5999L18.4 18.1999C19.2378 18.9725 19.9767 19.8458 20.6 20.7999L21.2 21.9999ZM14.4 13.5999L12 13.9999L9.6 13.5999L7.8 12.1999L6.4 10.3999C6.17002 9.61902 6.0357 8.81313 6 7.99989C6.0357 7.18664 6.17002 6.38075 6.4 5.59989L7.8 3.79989L9.6 2.39989L12 1.99989L14.4 2.39989L16.2 3.79989L17.6 5.59989C17.83 6.38075 17.9643 7.18664 18 7.99989C17.9643 8.81313 17.83 9.61902 17.6 10.3999L16.2 12.1999L14.4 13.5999Z" fill="#091F2C"/>
</g>
<defs>
<clipPath id="clip0_4544_23138">
<rect width="32" height="32" fill="white"/>
</clipPath>
</defs>
</svg>
